<?xml version="1.0" encoding="utf-8"?>
<!-- Generator: Adobe Illustrator 25.1.0, SVG Export Plug-In . SVG Version: 6.00 Build 0)  -->
<svg version="1.1" id="Layer_1" xmlns="http://www.w3.org/2000/svg" xmlns:xlink="http://www.w3.org/1999/xlink" x="0px" y="0px"
	 viewBox="0 0 430 751.9" style="enable-background:new 0 0 430 751.9;" xml:space="preserve">
<style type="text/css">
	.st0{fill:#F7C48F;stroke:#000000;stroke-miterlimit:10;}
	.st1{fill:#F4E1D0;}
	.st2{fill:#409897;}
</style>
<rect class="st0" width="430" height="751.9"/>
<polygon class="st1" points="26,368.5 19.8,368.5 12.4,362.9 11,355.6 3.3,331.5 1.7,329.7 1.7,310.1 10,313.9 27.7,355.2 29.5,351 
	"/>
<polygon class="st1" points="2.3,500 9.3,518.5 5.8,526.7 2.3,523.6 "/>
<g>
	<path class="st2" d="M14.8,338.1c-3.9-6.5-7.8-13-11.7-19.4c-1.4-2.3-2.7-4.6-4.1-7c0.5-0.4,1-0.8,1.6-1.3c1.5,1.2,3.4,2,4.4,3.5
		c6.3,8.5,12.8,16.8,18.5,25.7c6.1,9.5,5.4,20.1,3,30.7c-1.6,7-1.5,8.8,2.2,17.4c1.3-9.3,2.6-17.2,3.4-25.1
		c2.7-25.8,8.5-51,16.3-75.7c3.8-12.1,8.3-24,10.9-36.4c2.6-12.6,3.8-25.6,4.7-38.4c0.7-10.2,0.3-20.6,0.2-30.9
		c0-2.9-0.6-5.7-0.9-8.3c-13.7-4.4-16.6-8.1-16.5-22.4c0.1-11.6,0.1-23.3-3.3-34.5c-1.4-4.8-3.7-9.3-5-14.2c-0.5-2-0.4-5,0.8-6.3
		c2-2.3,5-1.1,7.1,0.7c7.5,6.8,14,14.5,18.4,23.6c5.2,10.9,7.9,22.4,7.1,34.5c-0.3,4.1-2.1,8.1-3.1,12.1c-0.6,2.5-1.6,5-1.5,7.5
		c0.4,15,1,30,1.6,45c0.1,1.5,0.3,2.9,1.6,4.7c1.1-1.9,2.3-3.8,3.3-5.8c14.3-29.3,31.3-56.9,54.5-80.2c2.4-2.5,3.3-5,3-8.5
		c-1.2-14.5,3.8-26.9,13-37.9c1-1.2,2-2.4,3.2-3.5c14.1-13.4,30-24.1,47.8-31.8c3.6-1.6,7.3-3.1,11.9-0.4c-1.2,1.8-2.1,3.7-3.4,5.1
		c-13.1,14.6-22.3,31.3-27,50.4c-2.6,10.5-8.7,19.1-16.8,26.3c-5,4.4-10.5,7.4-17.3,5.3c-4-1.2-6,1.2-7.9,3.7
		c-9.5,12.3-19.8,24.1-28.4,37.1C78.3,226,60,272.7,49.2,322.5c-0.4,1.7-0.3,3.5,0.5,5.5c0.9-1.5,2-2.9,2.8-4.4
		c10-19.7,22.4-38,37.2-54.7c2.3-2.6,3.6-5.1,3.5-9.1c-0.2-21.3,10.8-36.3,28.1-47.4c5.5-3.5,11.8-6,14.8-12.6c0.5-1,2.5-1.4,3.8-2
		c-2.1,11.4-3.9,22.4-6.1,33.3c-2.3,11.5-8.6,20.9-16.7,29.1c-4.2,4.3-9.2,7.1-15.5,6.6c-2.8-0.2-5.1,0.4-7,2.7
		c-12.1,14.7-23,30.2-32.2,46.9c-0.5,0.8-0.5,1.9-1,3.9c2.7-1.1,4.6-1.7,6.4-2.5c7-3.2,13.8-6.6,20.9-9.5c3.5-1.5,6.3-3.3,8.2-6.9
		c7.9-14.3,19.9-23.8,35.2-29c7-2.4,14.1-4.4,21.3-6.1c3.2-0.8,6.7-0.6,10.8-0.9c-7,12.1-12.7,23.8-20.2,34.3
		c-4.3,6-10.9,10.8-17.4,14.6c-11.5,6.9-18.7,5.5-28.8-4.1c-1.7,0.5-3.7,1-5.6,1.8c-10.1,4.6-20.1,9.3-30.2,13.8
		c-4.6,2.1-7.6,5.3-9.5,10c-5.3,13-10.4,25.9-11.5,40.1c-2.3,30.8-5,61.5-7.5,92.3c-0.1,1.4,0.1,2.9,0.3,5.8c4.2-4.9,6.3-9,6.3-14.3
		c0.2-23.6,12.9-42,34.9-50.6c4.7-1.9,9.5-3.6,15.7-6c-2.8,4.7-5.1,8.1-6.8,11.7c-3.9,8.4-7,17.1-11.2,25.3c-3.6,7-8,13.6-12.8,19.8
		c-4.1,5.4-9.4,9.4-17.3,7.3c-5.4,10.1-10.5,19.4-10.4,31.2c0.2,26.4-0.9,52.8-0.9,79.2c0,33.5,0.7,67,1.1,100.6
		c0,1.3,0.2,2.6,1.3,4.2c0.8-1.7,1.7-3.4,2.3-5.3c8.6-26.8,20.2-52.1,35.7-75.7c2.3-3.4,3.6-6.8,3.3-11c-1.2-17.4,6.6-30.5,19.8-41
		c9.8-7.8,20.5-13.9,32.9-16.7c4.5-1,8.8-2.9,13.9-3.4c-0.9,1-1.6,2.2-2.7,3c-12.8,9.3-21.9,21.1-25.8,36.8
		c-2.6,10.3-8.8,18.5-16.6,25.6c-3.4,3.1-7.3,5.7-12.1,4.8c-5.2-0.9-7.6,1.8-10,5.7c-13.3,22-23.3,45.5-31.8,69.7
		c-6.8,19.2-10.8,38.5-8.9,58.9c0.3,3.4,0.3,6.9,0.1,10.3c-0.3,4.6-0.6,4.7-7.6,4.5c-0.4-6.9-1.1-14-1.3-21
		c-0.9-35.1-1.6-70.2-2.4-105.3c-0.2-10.3-1.5-20.5-4.7-30.4c-5.1-16.1-9.9-32.3-15-48.4c-1.1-3.3-3.2-6.3-5.1-9.7
		c-0.3-3.7-0.6-8-1-13c1.4,0.6,2.5,1.1,3.8,1.7c3.1-9.3-4.9-17.6-2.1-28.6c6.5,11.2,10.5,21.4,8.1,32.8c-1.5,7.2-0.4,13.4,2.2,19.9
		c3.5,8.8,6.3,17.9,9.5,26.9c0.5,1.4,1.2,2.8,3.1,4.2c0.2-2.4,0.5-4.8,0.5-7.2c0.1-20.1-0.3-40.1,0.2-60.2
		c0.6-25.8,1.4-51.7,2.7-77.5c1-19.7-2.7-38.8-5-58.3c-1.8-0.7-3.2-1.4-4.7-1.7c-5.5-1.2-8.9-4.9-10.3-10C2.1,353.4,0,343.9-2,334.3
		c-0.4-2.1,0.8-4.5,2.7-7c0.9,2.5,2,5,2.6,7.6c1.8,7.7,3.4,15.5,5.2,23.2c1.1,4.4,2.7,8.5,8.9,10c0.2-2.4,0.7-4.4,0.4-6.2
		c-1.1-5.7-2.5-11.3-3.7-17c-0.5-2.4-2.4-5.1,0.9-7c2,6.7,4,13.3,5.9,20c0.6-0.2,1.2-0.4,1.8-0.6C22.2,350.2,20.9,343.3,14.8,338.1z
		 M144.6,135.9c2.3-0.1,3.8,0.2,4.6-0.4c3.4-2.5,6.9-4.9,9.7-7.9c6.9-7.3,10.2-16.5,12.6-26c2.9-11.6,7.5-22.5,14.8-32
		c0.5-0.7,0.7-1.5,1.8-3.8C173.4,75,160.7,84,150.2,95.6c-5.9,6.5-10.7,13.8-12.6,22.5c-0.6,2.7-1.5,5.4,0.4,8.3
		c6.1-3.1,10-9.1,17.3-10.2C154.2,124.2,148,128.8,144.6,135.9z M103.1,308.1c3.6,5.1,7.7,5.9,11.4,4.9c5-1.3,10-3.2,14.5-5.8
		c13.6-8.1,17.1-23.2,24.7-36.2c-20.6,2.9-45.9,18.6-49.6,30.8c11.1-2.6,21.2-7.8,32.3-9.2c0.2,0.5,0.4,1,0.6,1.5
		C125.9,298.6,114.9,303.2,103.1,308.1z M45.2,455.3c2.4-3.6,4.8-7.1,7.3-10.7c-0.5,6.6-6.3,10.9-5.7,19.2c2.8-1.9,5-2.9,6.3-4.6
		c4.4-5.5,9.1-10.9,12.6-17c5-8.6,9-17.8,13.4-26.8c0.5-1,0.5-2.2,0.8-3.7C60.8,419.1,44.9,438.5,45.2,455.3z M131.3,212.1
		c-16.7,8.2-35.7,32.2-30.9,44.5c0.9-0.6,1.9-1,2.6-1.6c7.3-6.4,14.7-12.7,21.9-19.2c1.1-1,2.2-2.4,2.5-3.8
		C128.8,225.8,129.9,219.7,131.3,212.1z M117.6,543c-19.7,6.2-40.6,31.8-37.5,45.3c0.7-0.4,1.5-0.7,1.9-1.2c7.4-9,15.4-17.2,25-23.9
		c1-0.7,2-1.8,2.5-2.9C112.1,554.9,114.6,549.4,117.6,543z M64.3,144.4c-1-12.8-4.3-23.3-12.1-32.1c-0.6,1.5-0.5,2.8-0.2,4
		c2.6,10.6,3.2,21.3,2.3,32.1c-0.3,3.4-0.2,6.8,0.1,10.2c0.3,2.9,1.3,5.6,5.8,6.5c-0.5-8.1-0.9-15.7-1.4-24.6
		C61.1,142.1,62.2,142.9,64.3,144.4z M105.9,566.3c-9,8.4-17.1,16.2-22.6,26.9c4.6,2.1,7-0.7,9.4-2.8
		C100.8,583.3,105.8,574.5,105.9,566.3z M102.8,260.1c9.6-0.6,18.5-10.4,19.6-20.8C115.2,246.9,109,253.5,102.8,260.1z"/>
	<path class="st2" d="M64.9,697.5c-7,9.7-7,9.7-7.9,23.3c-0.3,4.2-0.7,8.4-1.2,12.6c-1.2,10.7-3.2,12.9-14.5,15.9
		c-7.4-8.8-6.9-19.1-3.1-28.8c2.6-6.7,7.3-12.8,12-18.3C53.7,698.2,58.5,695,64.9,697.5z M46.3,730.1c0.2,0.1,0.5,0.3,0.7,0.4
		c-0.6,4-1.3,7.9-2,12.3c4.7-0.4,4.7-3.3,5.2-5.7c2.1-8.8,1.8-20.4-1-25.4c-4.2,7.5-8,14.6-6.8,24.9
		C44.3,733.4,45.3,731.7,46.3,730.1z"/>
	<path class="st2" d="M14.3,750.3c-1.4-0.8-3.2-1.2-4.1-2.3C4,740.5-1.5,729.2-1.1,724.1c7.3,7.8,13,15.5,17.1,24.4
		C15.4,749,14.9,749.7,14.3,750.3z"/>
	<path class="st1" d="M144.6,135.9c3.4-7.1,9.7-11.7,10.8-19.7c-7.4,1.1-11.2,7.1-17.3,10.2c-1.9-2.9-1-5.6-0.4-8.3
		c2-8.7,6.8-16,12.6-22.5C160.8,84,173.4,75,188.2,65.8c-1.1,2.3-1.3,3.2-1.8,3.8c-7.4,9.6-11.9,20.4-14.8,32
		c-2.4,9.5-5.7,18.7-12.6,26c-2.8,3-6.4,5.5-9.7,7.9C148.3,136.2,146.8,135.8,144.6,135.9z"/>
	<path class="st1" d="M103.1,308.1c11.8-4.9,22.9-9.5,33.9-14c-0.2-0.5-0.4-1-0.6-1.5c-11.1,1.4-21.2,6.6-32.3,9.2
		c3.7-12.2,29-27.9,49.6-30.8c-7.6,13-11,28.1-24.7,36.2c-4.4,2.6-9.5,4.5-14.5,5.8C110.7,314,106.6,313.2,103.1,308.1z"/>
	<path class="st1" d="M45.2,455.3c-0.3-16.8,15.7-36.3,34.6-43.6c-0.3,1.5-0.3,2.7-0.8,3.7c-4.4,9-8.4,18.2-13.4,26.8
		c-3.5,6.1-8.2,11.5-12.6,17c-1.3,1.7-3.6,2.6-6.3,4.6c-0.6-8.2,5.1-12.5,5.7-19.2C50,448.2,47.6,451.8,45.2,455.3z"/>
	<path class="st1" d="M131.3,212.1c-1.5,7.6-2.5,13.7-3.9,19.8c-0.3,1.4-1.4,2.8-2.5,3.8c-7.2,6.5-14.6,12.8-21.9,19.2
		c-0.7,0.6-1.7,1.1-2.6,1.6C95.6,244.3,114.6,220.3,131.3,212.1z"/>
	<path class="st1" d="M117.6,543c-3,6.4-5.5,11.8-8.1,17.2c-0.5,1.1-1.5,2.2-2.5,2.9c-9.5,6.7-17.6,15-25,23.9
		c-0.4,0.5-1.2,0.8-1.9,1.2C77,574.9,97.9,549.2,117.6,543z"/>
	<path class="st1" d="M64.3,144.4c-2.1-1.5-3.2-2.3-5.6-3.9c0.5,8.8,1,16.5,1.4,24.6c-4.5-0.9-5.5-3.6-5.8-6.5
		c-0.3-3.4-0.4-6.8-0.1-10.2c0.9-10.8,0.3-21.5-2.3-32.1c-0.3-1.2-0.3-2.5,0.2-4C60,121,63.3,131.6,64.3,144.4z"/>
	<path class="st1" d="M105.9,566.3c0,8.2-5,17-13.2,24.1c-2.4,2.1-4.9,4.9-9.4,2.8C88.7,582.5,96.9,574.7,105.9,566.3z"/>
	<path class="st1" d="M102.8,260.1c6.2-6.6,12.4-13.2,19.6-20.8C121.2,249.6,112.4,259.4,102.8,260.1z"/>
	<path class="st1" d="M14.8,338.1c6,5.2,7.4,12.1,7.9,19.3c-0.6,0.2-1.2,0.4-1.8,0.6c-2-6.7-4-13.3-5.9-20L14.8,338.1z"/>
	<path class="st1" d="M46.3,730.1c-1,1.7-2,3.4-3.8,6.5c-1.2-10.3,2.5-17.4,6.8-24.9c2.8,5,3.1,16.6,1,25.4
		c-0.6,2.4-0.5,5.4-5.2,5.7c0.7-4.3,1.3-8.3,2-12.3C46.7,730.3,46.5,730.2,46.3,730.1z"/>
</g>
<g id="_x35_mMTAM.tif">
</g>
<path class="st1" d="M94.1,520.9"/>
</svg>
