<?xml version="1.0" encoding="utf-8"?>
<!-- Generator: Adobe Illustrator 25.1.0, SVG Export Plug-In . SVG Version: 6.00 Build 0)  -->
<svg version="1.1" id="Layer_1" xmlns="http://www.w3.org/2000/svg" xmlns:xlink="http://www.w3.org/1999/xlink" x="0px" y="0px"
	 viewBox="0 0 636 487" style="enable-background:new 0 0 636 487;" xml:space="preserve">
<path d="M475.1,280.1c-7,0-13.5-3.1-17.9-8.5c-3.9-4.7-5.7-10.8-5.1-16.9c0.6-6.2,3.7-11.6,8.5-15.5l4.3-3.4c4-3.3,9.2-5.2,14.5-5.2
	c7,0,13.5,3.1,17.9,8.6c7.8,9.5,6.4,24-3.1,32.2l-0.2,0.1l-4.5,3.7l-0.1,0.1C485.1,278.4,480.2,280.1,475.1,280.1z"/>
<path d="M347.7,388.9c-7,0-13.5-3.1-17.9-8.5c-3.9-4.7-5.7-10.8-5.1-16.9c0.6-6.2,3.7-11.6,8.5-15.5l88.4-70.5
	c4-3.3,9.2-5.1,14.4-5.1c7,0,13.5,3.1,17.9,8.6c7.9,9.9,6.5,24-3.2,32.2l-88.7,71C357.7,387.2,352.7,388.9,347.7,388.9z"/>
<path d="M84.3,481.5C37.8,481.5,0,443.6,0,397.2v-310C0,40.7,37.8,2.9,84.3,2.9h458.2c46.5,0,84.3,37.8,84.5,84.3v310
	c0,46.5-37.8,84.3-84.3,84.3H84.3z M506.4,435.4V179.6l-178.8,144c-4,3.3-9.1,5.1-14.4,5.1s-10.4-1.8-14.4-5.2l-178.6-144v255.7
	h386.2V435.4z M529.4,108.7c3.4,0,6.7,0.7,9.8,2.2c7.9,3.8,13.1,11.9,13.1,20.7v302.6c16.4-4.4,28.5-19.4,28.5-37V87
	c0-18.2-13.5-34.2-31.2-37.6L327.9,228.8c-4.1,3.3-9.3,5.1-14.5,5.1c-5.3,0-10.3-1.8-14.4-5L77.1,49.5C59.5,53,46,68.9,46,87.1V397
	c0,17.5,11.8,32.4,28.2,36.9V131.5c0-8.9,5.1-17,13.1-20.7c3.2-1.4,6.5-2.2,9.9-2.2c5.2,0,10.4,1.8,14.4,5.1L313.3,276L515,113.6
	C519.1,110.4,524.3,108.7,529.4,108.7z M313.3,181.3l164-132.5H149.4L313.3,181.3z"/>
</svg>
