<?xml version="1.0" encoding="utf-8"?>
<!-- Generator: Adobe Illustrator 25.1.0, SVG Export Plug-In . SVG Version: 6.00 Build 0)  -->
<svg version="1.1" id="Layer_1" xmlns="http://www.w3.org/2000/svg" xmlns:xlink="http://www.w3.org/1999/xlink" x="0px" y="0px"
	 viewBox="0 0 430 751.9" style="enable-background:new 0 0 430 751.9;" xml:space="preserve">
<style type="text/css">
	.st0{fill:#F7C48F;stroke:#000000;stroke-miterlimit:10;}
	.st1{fill:#F4E1D0;}
	.st2{fill:#409897;}
</style>
<rect class="st0" width="430" height="751.9"/>
<polygon class="st1" points="319.9,38.7 298.8,47.8 280.4,65.2 277.8,88.2 287.3,98.1 303.4,85.1 "/>
<polygon class="st1" points="208,73.9 222.3,98.1 215.2,121.1 208,118.3 "/>
<polygon class="st1" points="275.6,156.2 263.2,163.2 252.1,176.5 246,190.8 249.4,198.9 256.1,198.9 268.7,187.3 277.8,161.4 "/>
<path class="st1" d="M252.1,228.3c0,0,15.8-17.8,36.8-22.4c21-4.7,3.4,0,2.8,4.7s-10.5,29.5-23.5,31.2c-13.1,1.6-22.9-2.6-22.2-5.5
	C246.7,233.2,249.8,227.8,252.1,228.3z"/>
<path class="st1" d="M185.8,271.1c0,0-11.1-27.6-21-31.2c0,0-5.4-1.7-3.5,3.2l9.1,32.9l5.2,11.2l6.6,1l3.5-16"/>
<polygon class="st1" points="205,362.9 207.5,364.6 220.1,353 233.1,324.2 225.8,324.2 206,344.2 202.3,357 "/>
<path class="st1" d="M161.7,420.8l8.1-10.1c0,0-11.3-37.3-19.7-34.8S157,420.8,161.7,420.8z"/>
<polygon class="st1" points="230,473.4 242,473.4 255.1,456.1 266,430 252.5,434.2 235.1,452.3 "/>
<polygon class="st1" points="205.3,596.9 212.9,585.8 211.2,567.3 202.1,572.2 196.7,582.7 "/>
<polygon class="st1" points="176,614.1 177.9,601.4 167.3,585.5 161.2,582.1 162.8,594.7 171.5,617.8 "/>
<g>
	<path class="st2" d="M162,239.2c1.1-0.5,2.7-1.6,3.1-1.3c11.5,10.4,21.6,21.8,24.4,37.7c0.7,4.1-0.8,8.6-1.1,12.9
		c-0.3,3.9-0.4,7.7-0.6,11.6c0.7,0.1,1.3,0.1,2,0.2c1-6.8,2.1-13.5,2.8-20.3c2.3-21.7,7.4-42.7,14.3-63.3
		c8.5-25.5,13.1-51.5,12.1-78.4c-0.1-3.7-0.7-7.4-1.1-11.6c-12.7-2.4-14-11.8-13.8-21.8c0.2-12.3-0.8-24.3-6.1-35.6
		c-1.1-2.3-2.4-5.5,0.7-6.8c1.8-0.7,5.3,0.1,6.9,1.6c13.6,12.7,20.5,28.4,20.1,47.1c0,0.9,0,1.8-0.4,2.6c-5.5,10.7-2.2,22-2.2,33.1
		c0,6.6,0,13.1,0,21.8c1.9-3,2.9-4.3,3.6-5.7c11.6-23.8,25.4-46.1,44-65.1c1.8-1.8,3.1-5.1,3-7.6c-0.8-13.7,4.4-25,13.8-34.4
		c11.2-11.1,24.3-19.5,38.7-25.9c4.5-2,4.6-1.8,10.7,0c-2.2,3-4,5.7-6.2,8.3c-8.3,9.9-14.4,20.9-17.6,33.5
		c-2.5,10.1-7.1,19.1-15.4,25.5c-3.2,2.5-7.7,4.6-11.6,4.7c-4.9,0.1-8,1.8-11,5.3c-15.8,18.3-29,38.3-39.6,59.9
		c-11.8,24.2-21.2,49.4-27.1,75.8c-0.5,2.4-0.8,4.8,0.1,7.7c1-1.6,1.9-3.3,3-4.9c9-13,18-26.1,27.2-39.1c2-2.9,3.9-5.2,3.9-9.2
		c0.1-17.2,9-29.3,22.8-38.5c4.5-3,8.3-6.9,12.5-10.3c0.8-0.6,2-0.8,3.7-1.5c-2.1,10.9-3.7,21.1-6.1,31c-2,8.3-6.9,15.4-13.5,20.8
		c-3.2,2.6-7.6,3.7-11.4,5.5c-2.5,1.1-5.8,1.6-7.4,3.5c-10,11.6-18.5,24.3-25,39.1c4.7-2.2,9.3-4.7,14.2-6.4
		c7.1-2.5,12.2-6.6,16.4-13.1c9-14.1,23.8-19.5,39.2-23.3c4.1-1,8.3-2.3,12.8-0.5c-4.8,8.7-8.9,17.2-14.1,25.1
		c-3.1,4.7-7.5,8.8-12.1,12.1c-10.7,7.7-17.7,7.4-29.4-0.9c-9.8,4.7-20.3,9.3-30.4,14.7c-2.5,1.3-4.1,4.7-5.5,7.4
		c-6.9,13.7-9.1,28.5-10.4,43.6c-1.7,19.9-3.4,39.7-5.1,59.6c-0.2,2.2,0,4.4,0,7.9c4-3.3,4.5-6.4,4.7-9.9c1-21.5,12-36.3,32.4-43.4
		c2.7-0.9,5.4-1.8,9.3-3.1c-1.2,2.6-2,4.2-2.7,5.9c-3.5,7.6-6.7,15.4-10.5,22.8c-3,5.9-6.4,11.6-10.3,16.9
		c-3.5,4.7-7.9,8.7-14.7,7.2c-4.8,7.2-8.6,14.2-8.7,22.7c-0.3,25.7-1.1,51.5-1.1,77.2c0,24.6,0.9,49.1,2.3,74
		c0.8-1.9,1.8-3.8,2.5-5.8c7-20,15.6-39.2,27.4-56.9c2.3-3.5,3.6-7.1,3.4-11.3c-0.6-13.6,5.7-23.8,15.8-32.2
		c11.1-9.2,24.1-14.2,38-17c0.5,0.6,1.1,1.3,1.6,1.9c-1.9,1.2-3.8,2.2-5.6,3.6c-8.4,6.7-13.8,15.2-17.3,25.4
		c-2.3,6.7-6.1,13-10.2,18.8c-4.3,6.1-10.2,10.3-19.2,8.3c-3.7,6.3-7.5,12.4-10.8,18.7c-10.6,20-18.1,41.3-24.2,63.1
		c-1.9,6.6-2.7,13.4-1.2,21.6c3.8-6.1,6.7-11.3,10.1-16c3.4-4.8,7.8-8.3,16.2-7.4c-9.2,8.3-6.8,18.3-8.1,27.4
		c-0.9,6.5-1.5,12.7-8.7,15.6c-1.5,0.6-2.5,3.1-3.2,4.9c-1,2.7-1.5,5.6-2.1,8.4c-3.7,18.3-8.8,36.3-11.6,54.9
		c-3.1,20.6-11.3,40-19.9,59c-1.4,3.1-3.3,6.2-5.5,8.8c-1.9,2.2-4.7,3.6-7,5.4c-0.6-0.4-1.1-0.8-1.7-1.2c0.5-1.7,0.6-3.6,1.5-4.9
		c11.7-17.7,18.4-37.8,22.2-58c3.2-16.7,2.2-34.6-1.2-51.7c-0.4-2.3-2.4-4.4-3.9-6.4c-1.6-2-4.5-3.4-5.2-5.6
		c-3.6-11.8-6.8-23.8-10-35.8c-0.2-0.7,0.4-1.6,0.6-2.3c0.7-0.2,1.4-0.6,1.7-0.4c11.2,6.3,17.6,16.3,21.7,28.1
		c0.7,2.1,0.9,4.9,0.1,6.8c-4.1,10.3,0.4,19.8,2.7,29.9c0.4-1.4,1-2.8,1.2-4.2c3.4-26.8,2-53.7,0.6-80.5c-0.8-15.3-1.1-30.7-0.6-46
		c0.5-17-1.7-33.4-7.2-49.4c-2.8-8.2-5.3-16.5-7.8-24.8c-1.5-4.7-2.8-9.1-8.5-11c-2.3-0.7-4.3-3.9-5.4-6.4c-2.2-5-4.1-10.2-5.4-15.5
		c-2.6-10.1-4.8-20.2-7-30.4c-0.5-2.1-0.3-4.4-0.4-8.7c3.8,3,6.8,4.5,8.4,6.9c6.1,8.8,12.2,17.6,17.4,26.9
		c3.9,6.9,4.8,14.7,3.1,22.8c-0.5,2.5-0.9,5.3-0.1,7.6c3.3,10.1,7.1,20.1,12,30.1c0.2-2.4,0.5-4.7,0.5-7.1c0.2-29.5,0.3-59,0.6-88.5
		c0-5.2,0.4-10.4,1-15.6c2.1-16.9-1-33.4-3-50.1c-0.3-2.9-1.7-4.8-4.6-5.6c-5.7-1.7-8-6.1-9.5-11.4c-3.3-11.7-6.8-23.2-10.1-34.9
		c-0.7-2.5-0.8-5.3-1.2-7.9c0.5-0.2,1.1-0.4,1.6-0.6c1.1,0.8,2.1,1.6,3.2,2.4c1.2,3.8,2.6,7.5,3.7,11.4c2.4,8.6,4.6,17.2,6.9,25.8
		c1.1,4,1.7,8.4,6.4,10.1c0.7-0.8,1.3-1.3,1.3-1.7c-2.3-15.1-2.9-30.9-15.6-42.3C163.8,241.5,163,240.3,162,239.2z M286.7,95
		c0.4,0.4,0.7,0.8,1.1,1.2c2.8-2.1,5.9-3.9,8.4-6.4c5.7-5.7,8.1-13.1,10.7-20.5c2.7-7.9,6.1-15.5,9.2-23.2c0.4-1,0.6-2,1.1-3.4
		c-19.6,7.6-37.9,29.7-36.7,44.4c4-2.4,8-4.8,11.9-7.2c0.6,0.6,1.2,1.1,1.8,1.7C291.7,86,289.2,90.5,286.7,95z M251.5,238.1
		c6.3,5.3,11,3.7,15.5,1.7c13.8-6.1,19-18.6,24.7-32.7c-15.9,5.2-29.8,10.6-38.8,24.1c4.7-0.6,8.9-2,13.2-3.3s8.6-3,13-3.3
		c0.1,0.6,0.3,1.2,0.4,1.8C270.7,230.2,261.7,233.9,251.5,238.1z M205,362.9c10.3-3.9,22.2-23.2,24.8-37.3
		c-12.9,3.9-25.4,19-25.9,31.6c1.9-2.3,3.6-4.3,5.3-6.3c0.3,0.2,0.6,0.4,0.9,0.6C208.4,355.3,206.7,359.1,205,362.9z M272.7,161.4
		c-13.1,4.5-25.2,22-23,33.4c5-4.5,9.5-9.5,14.9-13.1C272,176.5,273.1,169.5,272.7,161.4z M261.7,432.6
		c-16.5,6.9-29.8,23.2-28.5,34.5c5.1-5,9.6-10.4,15.1-14.5C255,447.7,258.6,441.2,261.7,432.6z M165.6,413.4
		c0.6-12.9-5.8-22.8-12.8-32.5c2.6,13,2,26.8,10.5,38.3c-0.8-3.6-1.6-7.2-2.4-10.9c0.3-0.1,0.7-0.2,1-0.3
		C163.2,409.8,164.4,411.6,165.6,413.4z M218.5,98.7c-1.1-7.3-3.3-14.3-7.7-20.7c0,11.7-0.1,22.7,0.1,33.7c0,2.2,1.3,4.4,2,6.6
		C217.1,111.8,210.4,103.7,218.5,98.7z M162.8,585.5c3.4,9.5,3.7,19.8,9.1,30.2c0.6-5.4,5.8-7.4,3.6-12.2
		C172.4,596.8,168.7,590.6,162.8,585.5z M235.1,473.4c10.5-4.3,16.7-12.1,17.4-21.1C245.6,458.1,239.8,464.1,235.1,473.4z
		 M208.2,570.7c-5.8,7.4-6.5,9.5-5.9,16.8c0.8-0.6,1.6-1.2,2.6-2c-0.2,3.4-0.4,6.3-0.6,9.1c0.6,0,1.2,0.1,1.8,0.1
		C208.3,587.4,208.9,579.9,208.2,570.7z M252.1,197.3c0.4,0.5,0.9,1.1,1.3,1.6c5.8-2.5,9.4-7,12-12.6c-0.4-0.4-0.8-0.8-1.3-1.2
		C260.1,189.1,256.1,193.2,252.1,197.3z M195.4,595.4c0,4.7,0,8.4,0,12C198,603.7,199.4,600,195.4,595.4z M183,276
		c0.5-0.2,1.1-0.3,1.6-0.5c-1.1-3.1-2.1-6.2-3.2-9.3c-0.5,0.2-0.9,0.3-1.4,0.5C181,269.8,182,272.9,183,276z"/>
</g>
</svg>
