<?xml version="1.0" encoding="utf-8"?>
<!-- Generator: Adobe Illustrator 25.1.0, SVG Export Plug-In . SVG Version: 6.00 Build 0)  -->
<svg version="1.1" id="Layer_1" xmlns="http://www.w3.org/2000/svg" xmlns:xlink="http://www.w3.org/1999/xlink" x="0px" y="0px"
	 viewBox="0 0 24 24" style="enable-background:new 0 0 24 24;" xml:space="preserve">
<path d="M20.6,23.8h-0.2c-3.6-0.3-6.8-1.5-9.8-3.6c-2.7-1.7-5.1-4.1-6.8-6.8c-1.8-2.8-3-6.2-3.5-9.8C0.1,2.8,0.4,1.9,1,1.3
	s1.3-1.1,2.2-1.2h3.6c1.7,0,3,1.2,3.2,2.8c0.1,1,0.4,1.8,0.8,2.8c0.4,1.1,0.2,2.5-0.6,3.4L9.2,9.9c1.3,2.1,2.9,3.7,5,5l0.9-0.9
	c1.1-0.9,2.4-1.1,3.5-0.6c0.9,0.3,1.7,0.5,2.7,0.6c1.6,0.1,2.8,1.5,2.8,3.2v3.2C23.9,22.4,22.5,23.8,20.6,23.8z M3.2,2.3
	c-0.3,0-0.5,0.2-0.6,0.4C2.5,2.9,2.4,3.1,2.4,3.3c0.4,3.4,1.5,6.4,3.1,9c1.5,2.5,3.7,4.7,6.2,6.2c2.8,1.8,5.7,2.9,8.9,3.2h0.1
	c0.6,0,1.1-0.4,1.1-1.1v-3.2c0-0.5-0.3-1.1-0.9-1.1c-1.2-0.1-2.3-0.4-3.2-0.8c-0.5-0.2-1,0-1.2,0.2l-1.3,1.3
	c-0.3,0.3-0.9,0.4-1.3,0.2c-2.9-1.6-5.3-4-6.9-6.9C6.6,9.8,6.7,9.3,7,9l1.4-1.4c0.2-0.2,0.3-0.8,0.2-1.1C8.3,5.4,7.9,4.3,7.8,3.1
	c0-0.5-0.6-0.9-1.1-0.9C6.7,2.3,3.2,2.3,3.2,2.3z"/>
</svg>
